<?xml version="1.0" encoding="utf-8"?>
<!-- Generator: Adobe Illustrator 16.0.0, SVG Export Plug-In . SVG Version: 6.00 Build 0)  -->
<!DOCTYPE svg PUBLIC "-//W3C//DTD SVG 1.1//EN" "http://www.w3.org/Graphics/SVG/1.1/DTD/svg11.dtd">
<svg version="1.1" id="Layer_1" xmlns="http://www.w3.org/2000/svg" xmlns:xlink="http://www.w3.org/1999/xlink" x="0px" y="0px"
	 width="1093.5px" height="1237.059px" viewBox="0 0 1093.5 1237.059" enable-background="new 0 0 1093.5 1237.059"
	 xml:space="preserve">
<polygon fill="#C6A05A" stroke="#231F20" stroke-width="18" stroke-miterlimit="10" points="7.642,1229.5 7.644,8.493 
	1085.382,8.493 1085.382,1229.493 "/>
<path fill="#231F20" d="M336.312,1142.716h9.028c4.884,0,8.408,0.456,10.563,1.353c2.164,0.901,3.864,2.361,5.112,4.381
	c1.248,2.018,1.871,4.434,1.871,7.249c0,3.122-0.817,5.717-2.45,7.787c-1.63,2.065-3.846,3.506-6.646,4.315
	c-1.637,0.468-4.631,0.701-8.967,0.701v18.946h-8.513V1142.716z M344.825,1160.198h2.707c2.127,0,3.604-0.149,4.438-0.454
	c0.836-0.307,1.482-0.812,1.959-1.513c0.478-0.699,0.717-1.553,0.717-2.548c0-1.728-0.669-2.985-2.009-3.777
	c-0.971-0.594-2.775-0.886-5.407-0.886h-2.405V1160.198z"/>
<path fill="#231F20" d="M401.745,1142.716h8.452v44.732h-8.452V1142.716z"/>
<path fill="#231F20" d="M450.942,1142.716h24.414v8.333h-15.963v8.089h15.963v8.178h-15.963v11.769h15.963v8.364h-24.414V1142.716z"
	/>
<path fill="#231F20" d="M562.984,1187.448v-44.732h7.03c4.082,0,7.062,0.262,8.951,0.792c2.678,0.711,4.812,2.024,6.395,3.954
	c1.58,1.922,2.374,4.197,2.374,6.812c0,1.696-0.359,3.25-1.079,4.633c-0.717,1.387-1.89,2.694-3.516,3.906
	c2.723,1.279,4.707,2.878,5.962,4.794c1.257,1.914,1.885,4.182,1.885,6.791c0,2.514-0.649,4.805-1.951,6.875
	c-1.29,2.064-2.967,3.613-5.02,4.637c-2.044,1.019-4.877,1.539-8.489,1.539H562.984z M571.498,1150.837v9.422h1.86
	c2.079,0,3.619-0.435,4.623-1.308c1.009-0.87,1.514-2.056,1.514-3.558c0-1.398-0.48-2.504-1.438-3.326
	c-0.956-0.823-2.408-1.23-4.36-1.23H571.498z M571.498,1167.863v11.462h2.137c3.532,0,5.919-0.446,7.149-1.341
	c1.225-0.893,1.84-2.185,1.84-3.888c0-1.931-0.721-3.45-2.165-4.562c-1.44-1.116-3.839-1.672-7.194-1.672H571.498z"/>
<path fill="#231F20" d="M643.889,1142.716h8.628l17.204,44.732h-8.845l-3.504-9.215h-18.248l-3.639,9.215h-8.848L643.889,1142.716z
	 M648.259,1154.576l-6.006,15.351h11.968L648.259,1154.576z"/>
<path fill="#231F20" d="M708.016,1142.716h9.021c4.94,0,8.462,0.443,10.552,1.322c2.097,0.888,3.787,2.344,5.059,4.392
	c1.275,2.054,1.916,4.474,1.916,7.269c0,2.941-0.705,5.399-2.113,7.375c-1.406,1.979-3.531,3.474-6.371,4.483l10.598,19.892h-9.309
	l-10.057-18.946h-0.78v18.946h-8.516V1142.716z M716.531,1160.198h2.667c2.709,0,4.576-0.357,5.592-1.062
	c1.023-0.716,1.53-1.894,1.53-3.539c0-0.979-0.247-1.827-0.753-2.547c-0.504-0.726-1.18-1.243-2.037-1.561
	c-0.844-0.313-2.398-0.469-4.663-0.469h-2.336V1160.198z"/>
<line fill="none" stroke="#231F20" stroke-width="6" stroke-miterlimit="10" x1="66.985" y1="1165.081" x2="269.164" y2="1165.081"/>
<line fill="none" stroke="#231F20" stroke-width="6" stroke-miterlimit="10" x1="807.506" y1="1165.081" x2="1009.685" y2="1165.081"/>
<path fill="#231F20" d="M177.917,283.589l-17.935-65.668H110.04l-18.21,65.668H75.829l51.043-185.694l-11.587-42.485h71.736
	l62.909,228.18H177.917z M135.147,127.419l-20.689,74.504h41.11L135.147,127.419z M174.882,71.136h-10.209l54.355,196.729h9.934
	L174.882,71.136z"/>
<path fill="#231F20" d="M597.236,283.589V115.833l-49.939,167.756h-32.005l-55.736-148.443v148.443h-15.729V93.208l-14.347-37.799
	h72.295l54.628,142.096l42.488-142.096h69.813v228.18H597.236z M491.007,71.136h-9.649l62.906,167.203l4.692-16.001L491.007,71.136z
	 M652.696,71.136H642.21v196.729h10.486V71.136z"/>
<path fill="#231F20" d="M221.788,692.408l-33.112-67.05c-4.138,0.83-7.727,1.382-11.313,1.382h-20.139v65.668H86.312V464.225h91.051
	c28.976,0,53.531,24.279,53.531,53.25v55.738c0,19.59-10.763,37.522-27.318,46.629l35.867,72.566H221.788z M141.495,479.952h-10.482
	V676.68h10.482V479.952z M215.165,517.475c0-20.416-17.108-37.522-37.803-37.522h-20.139v130.783h20.139
	c20.694,0,37.803-17.108,37.803-37.522V517.475z"/>
<path fill="#231F20" d="M520.874,692.408V464.225h71.184v228.184H520.874z M576.333,479.952h-10.759V676.68h10.759V479.952z"/>
<path fill="#231F20" d="M913.567,692.408c-29.252,0-53.248-24.01-53.248-53.526V517.475c0-29.247,24.556-53.25,53.248-53.25h78.636
	v15.728h-39.177c-11.869,0-21.524,9.93-21.524,21.793v153.137c0,11.867,9.655,21.798,21.524,21.798h39.177v15.729H913.567z
	 M915.776,654.882V501.745c0-7.722,2.208-14.893,6.627-21.241c-10.213,2.206-17.387,11.035-17.387,21.241v153.137
	c0,10.761,7.174,19.313,17.387,21.246C917.984,669.78,915.776,662.607,915.776,654.882z"/>
<path fill="#231F20" d="M177.917,1059.282l-17.935-65.666H110.04l-18.21,65.666H75.829l51.043-185.697l-11.587-42.483h71.736
	l62.909,228.181H177.917z M135.147,903.112l-20.689,74.5h41.11L135.147,903.112z M174.882,846.829h-10.209l54.355,196.727h9.934
	L174.882,846.829z"/>
<path fill="#231F20" d="M629.007,1059.282h-33.108l-98.779-171.896v171.896h-15.732V859.8l-16.274-28.698h80.017l68.149,118.645
	V831.102h15.729V1059.282z M613.278,981.749l-77.259-134.92h-11.864l89.123,153.687V981.749z"/>
<path fill="#231F20" d="M946.948,1059.282h-41.383c-29.249,0-53.256-24.007-53.256-53.53V884.354
	c0-29.25,24.564-53.252,53.256-53.252h41.383c28.975,0,53.259,24.281,53.259,53.252v121.398
	C1000.207,1034.725,976.198,1059.282,946.948,1059.282z M907.769,1021.759V868.621c0-7.725,2.209-14.896,6.628-21.244
	c-9.934,1.932-17.389,11.031-17.389,21.244v153.138c0,10.204,7.455,19.312,17.389,21.248
	C909.978,1036.656,907.769,1029.482,907.769,1021.759z M984.472,884.354c0-21.525-18.202-37.524-39.449-37.524
	c-11.871,0-21.524,9.93-21.524,21.792v153.138c0,11.864,9.653,21.797,21.524,21.797c22.348,0,39.449-16.008,39.449-37.804V884.354z"
	/>
<path fill="#231F20" d="M861.532,281.955V57.194h129.92v26.45h-59.798v79.511h58.147v26.725h-58.147v65.625h59.798v26.45H861.532z
	 M916.161,72.685h-10.596v193.779h10.596V72.685z"/>
</svg>
