<?xml version="1.0" encoding="utf-8"?>
<!-- Generator: Adobe Illustrator 16.0.0, SVG Export Plug-In . SVG Version: 6.00 Build 0)  -->
<!DOCTYPE svg PUBLIC "-//W3C//DTD SVG 1.1//EN" "http://www.w3.org/Graphics/SVG/1.1/DTD/svg11.dtd">
<svg version="1.1" id="Instagram" xmlns="http://www.w3.org/2000/svg" xmlns:xlink="http://www.w3.org/1999/xlink" x="0px" y="0px"
	 width="144.083px" height="144px" viewBox="0 0 144.083 144" enable-background="new 0 0 144.083 144" xml:space="preserve">
<path fill="#C8A15B" d="M72.041,11.166c-33.543,0-60.833,27.29-60.833,60.834s27.29,60.834,60.833,60.834
	c33.543,0,60.834-27.29,60.834-60.834S105.584,11.166,72.041,11.166z M72.041,126.834c-30.235,0-54.833-24.6-54.833-54.834
	c0-30.235,24.598-54.834,54.833-54.834S126.875,41.765,126.875,72C126.875,102.234,102.276,126.834,72.041,126.834z"/>
<path fill="#C8A15B" d="M91.077,42.701H53.006c-5.615,0-10.184,4.568-10.184,10.184V91.13c0,5.615,4.568,10.185,10.184,10.185
	h38.069c5.615,0,10.184-4.568,10.184-10.185V52.884C101.258,47.269,96.691,42.701,91.077,42.701z M80.847,71.899
	c0,4.856-3.95,8.806-8.806,8.806s-8.806-3.95-8.806-8.806c0-2.409,0.974-4.593,2.546-6.184h12.519
	C79.874,67.306,80.847,69.49,80.847,71.899z M83.4,50.849h8.92v9.189H83.4V50.849z M91.077,95.312H53.006
	c-2.307,0-4.184-1.877-4.184-4.184V65.715h9.784c-0.871,1.885-1.371,3.975-1.371,6.184c0,8.166,6.642,14.806,14.806,14.806
	c8.165,0,14.806-6.643,14.806-14.806c0-2.209-0.5-4.299-1.371-6.184h9.782v25.414C95.258,93.436,93.381,95.312,91.077,95.312z"/>
<g>
	<defs>
		<rect id="SVGID_1_" x="151" y="-62.762" width="257.35" height="269.882"/>
	</defs>
	<clipPath id="SVGID_2_">
		<use xlink:href="#SVGID_1_"  overflow="visible"/>
	</clipPath>
	
		<rect x="152.831" y="-60.931" clip-path="url(#SVGID_2_)" fill="none" stroke="#C8A15B" stroke-width="3.662" stroke-miterlimit="10" width="253.689" height="266.22"/>
	<path clip-path="url(#SVGID_2_)" fill="#C8A15B" d="M232.217,190.279h0.637c0.501,0,0.848-0.032,1.045-0.099
		c0.196-0.067,0.348-0.177,0.461-0.33c0.112-0.153,0.168-0.339,0.168-0.556c0-0.377-0.156-0.652-0.473-0.824
		c-0.229-0.13-0.652-0.194-1.271-0.194h-0.566V190.279z M230.214,186.465h2.124c1.15,0,1.979,0.1,2.486,0.295
		c0.508,0.197,0.908,0.515,1.203,0.956c0.293,0.439,0.439,0.968,0.439,1.582c0,0.681-0.191,1.248-0.576,1.699
		c-0.385,0.45-0.904,0.765-1.564,0.941c-0.385,0.103-1.09,0.153-2.109,0.153v4.134h-2.003V186.465z"/>
</g>
<rect x="245.612" y="186.465" fill="#C8A15B" width="1.988" height="9.762"/>
<polygon fill="#C8A15B" points="257.188,186.465 262.932,186.465 262.932,188.282 259.174,188.282 259.174,190.049 262.932,190.049 
	262.932,191.833 259.174,191.833 259.174,194.4 262.932,194.4 262.932,196.226 257.188,196.226 "/>
<g>
	<defs>
		<rect id="SVGID_3_" x="151" y="-62.762" width="257.35" height="269.882"/>
	</defs>
	<clipPath id="SVGID_4_">
		<use xlink:href="#SVGID_3_"  overflow="visible"/>
	</clipPath>
	<path clip-path="url(#SVGID_4_)" fill="#C8A15B" d="M285.553,191.952v2.501h0.504c0.83,0,1.393-0.097,1.682-0.292
		s0.434-0.477,0.434-0.849c0-0.421-0.17-0.752-0.51-0.995c-0.338-0.244-0.902-0.365-1.693-0.365H285.553z M285.553,188.237v2.056
		h0.439c0.488,0,0.852-0.095,1.088-0.286c0.236-0.188,0.355-0.447,0.355-0.775c0-0.306-0.113-0.546-0.338-0.727
		c-0.225-0.179-0.566-0.268-1.025-0.268H285.553z M283.551,196.227v-9.762h1.654c0.961,0,1.662,0.058,2.105,0.172
		c0.631,0.155,1.133,0.442,1.506,0.863c0.371,0.42,0.559,0.916,0.559,1.487c0,0.37-0.086,0.709-0.254,1.011
		c-0.17,0.302-0.445,0.588-0.828,0.853c0.641,0.278,1.107,0.628,1.402,1.046c0.297,0.418,0.443,0.913,0.443,1.481
		c0,0.549-0.152,1.049-0.459,1.5c-0.303,0.451-0.697,0.789-1.18,1.012c-0.48,0.223-1.148,0.337-1.998,0.337H283.551z"/>
</g>
<path fill="#C8A15B" d="M303.616,189.053l-1.412,3.35h2.816L303.616,189.053z M302.588,186.465h2.029l4.049,9.761h-2.082
	l-0.824-2.01h-4.293l-0.855,2.01h-2.082L302.588,186.465z"/>
<g>
	<defs>
		<rect id="SVGID_5_" x="151" y="-62.762" width="257.35" height="269.882"/>
	</defs>
	<clipPath id="SVGID_6_">
		<use xlink:href="#SVGID_5_"  overflow="visible"/>
	</clipPath>
	<path clip-path="url(#SVGID_6_)" fill="#C8A15B" d="M319.682,190.279h0.627c0.637,0,1.076-0.078,1.316-0.231
		c0.24-0.156,0.359-0.413,0.359-0.772c0-0.214-0.059-0.398-0.178-0.556c-0.119-0.158-0.277-0.271-0.479-0.34
		c-0.199-0.069-0.564-0.104-1.098-0.104h-0.549V190.279z M317.678,186.465h2.123c1.162,0,1.99,0.097,2.482,0.289
		s0.891,0.511,1.189,0.958c0.301,0.447,0.451,0.976,0.451,1.586c0,0.642-0.166,1.178-0.496,1.608
		c-0.332,0.433-0.832,0.759-1.5,0.979l2.494,4.34h-2.191l-2.367-4.134h-0.182v4.134h-2.004V186.465z"/>
</g>
<path fill="none" stroke="#C8A15B" stroke-width="2.442" stroke-miterlimit="10" d="M341.088,191.312h47.572 M166.84,191.312h47.574
	"/>
<path fill="#C8A15B" d="M192.229-47.375h-2.402l12.791,42.93h2.336L192.229-47.375z M182.879-35.092l-4.868,16.258h9.673
	L182.879-35.092z M192.943-1.013l-4.22-14.33h-11.752l-4.285,14.33h-3.766l12.012-40.522l-2.727-9.271h16.879l14.804,49.793H192.943
	z"/>
<path fill="#C8A15B" d="M304.661-47.375h-2.467v42.93h2.467V-47.375z M266.614-47.375h-2.27l14.801,36.487l1.105-3.492
	L266.614-47.375z M291.61-1.013v-36.608L279.86-1.013h-7.531l-13.115-32.393v32.393h-3.701v-41.545l-3.375-8.248h17.01
	l12.855,31.008L292-50.806h16.428v49.793H291.61z"/>
<g>
	<defs>
		<rect id="SVGID_7_" x="151" y="-62.762" width="257.35" height="269.882"/>
	</defs>
	<clipPath id="SVGID_8_">
		<use xlink:href="#SVGID_7_"  overflow="visible"/>
	</clipPath>
	<path clip-path="url(#SVGID_8_)" fill="#C8A15B" d="M201.708,50.025c0-4.455-4.025-8.188-8.896-8.188h-4.737v28.539h4.737
		c4.87,0,8.896-3.733,8.896-8.188V50.025z M184.374,41.837h-2.467v42.93h2.467V41.837z M203.266,88.199l-7.791-14.633
		c-0.975,0.183-1.818,0.303-2.663,0.303h-4.737v14.33h-16.687V38.405h21.424c6.819,0,12.597,5.298,12.597,11.62v12.163
		c0,4.275-2.533,8.188-6.428,10.176l8.439,15.835H203.266z"/>
</g>
<path fill="#C8A15B" d="M286.692,41.837h-2.531v42.931h2.531V41.837z M273.641,38.405h16.75v49.794h-16.75V38.405z"/>
<g>
	<defs>
		<rect id="SVGID_9_" x="151" y="-62.762" width="257.35" height="269.882"/>
	</defs>
	<clipPath id="SVGID_10_">
		<use xlink:href="#SVGID_9_"  overflow="visible"/>
	</clipPath>
	<path clip-path="url(#SVGID_10_)" fill="#C8A15B" d="M366.565,80.01V46.593c0-1.685,0.52-3.25,1.559-4.636
		c-2.402,0.482-4.092,2.409-4.092,4.636V80.01c0,2.348,1.689,4.215,4.092,4.636C367.084,83.261,366.565,81.695,366.565,80.01
		 M366.045,88.199c-6.883,0-12.529-5.239-12.529-11.68V50.025c0-6.382,5.777-11.62,12.529-11.62h18.502v3.432h-9.217
		c-2.793,0-5.066,2.167-5.066,4.756V80.01c0,2.59,2.273,4.757,5.066,4.757h9.217v3.433H366.045z"/>
</g>
<path fill="#C8A15B" d="M192.229,121.896h-2.402l12.791,42.93h2.336L192.229,121.896z M182.879,134.179l-4.868,16.257h9.673
	L182.879,134.179z M192.943,168.258l-4.22-14.33h-11.752l-4.285,14.33h-3.766l12.012-40.523l-2.727-9.27h16.879l14.804,49.793
	H192.943z"/>
<path fill="#C8A15B" d="M295.385,151.339l-18.18-29.442h-2.791l20.971,33.537V151.339z M299.086,168.258h-7.791l-23.242-37.511
	v37.511h-3.703v-43.531l-3.828-6.262h18.828l16.035,25.89v-25.89h3.701V168.258z"/>
<g>
	<defs>
		<rect id="SVGID_11_" x="151" y="-62.762" width="257.35" height="269.882"/>
	</defs>
	<clipPath id="SVGID_12_">
		<use xlink:href="#SVGID_11_"  overflow="visible"/>
	</clipPath>
	<path clip-path="url(#SVGID_12_)" fill="#C8A15B" d="M382.729,130.085c0-4.697-4.283-8.188-9.283-8.188
		c-2.793,0-5.064,2.167-5.064,4.755v33.418c0,2.59,2.271,4.757,5.064,4.757c5.258,0,9.283-3.493,9.283-8.249V130.085z
		 M364.68,160.069v-33.418c0-1.686,0.52-3.25,1.559-4.636c-2.336,0.422-4.09,2.407-4.09,4.636v33.418
		c0,2.227,1.754,4.215,4.09,4.637C365.2,163.321,364.68,161.755,364.68,160.069 M373.899,168.258h-9.738
		c-6.881,0-12.529-5.239-12.529-11.681v-26.492c0-6.383,5.779-11.62,12.529-11.62h9.738c6.818,0,12.533,5.298,12.533,11.62v26.492
		C386.432,162.898,380.782,168.258,373.899,168.258"/>
</g>
<path fill="#C8A15B" d="M366.655-47.037h-2.492v42.286h2.492V-47.037z M353.801-1.37v-49.047h30.57v5.772h-14.07v17.351h13.682
	v5.831h-13.682v14.321h14.07v5.772H353.801z"/>
<g>
	<defs>
		<rect id="SVGID_13_" x="151" y="-62.762" width="257.35" height="269.882"/>
	</defs>
	<clipPath id="SVGID_14_">
		<use xlink:href="#SVGID_13_"  overflow="visible"/>
	</clipPath>
	<path clip-path="url(#SVGID_14_)" fill="#C8A15B" d="M273.875,192.79c0.828,0,1.5-0.672,1.5-1.5s-0.672-1.5-1.5-1.5
		s-1.5,0.672-1.5,1.5S273.047,192.79,273.875,192.79"/>
</g>
<path fill="#C8A15B" d="M-67.959,11.166c-33.543,0-60.833,27.29-60.833,60.834c0,33.545,27.29,60.834,60.833,60.834
	c33.543,0,60.834-27.289,60.834-60.834C-7.125,38.456-34.416,11.166-67.959,11.166z M-67.959,126.834
	c-30.235,0-54.833-24.598-54.833-54.834c0-30.235,24.598-54.834,54.833-54.834S-13.125,41.765-13.125,72
	C-13.125,102.236-37.724,126.834-67.959,126.834z"/>
<path fill="#C8A15B" d="M-49.208,36.304h-13.195c-0.031,0-0.061,0.001-0.09,0.004c-13.323,0.042-15.063,9.345-15.07,17.476
	c-0.018,0.076-0.028,0.154-0.028,0.235v5.708h-9.118c-0.552,0-1,0.448-1,1v14.078c0,0.553,0.448,1,1,1h9.118v30.891
	c0,0.553,0.448,1,1,1h13.307c0.553,0,1-0.447,1-1V75.805h13.076c0.553,0,1-0.447,1-1V60.728c0-0.552-0.447-1-1-1h-14.076v-7.567
	h14.076c0.553,0,1-0.448,1-1V37.304C-48.208,36.752-48.656,36.304-49.208,36.304z"/>
</svg>
