<?xml version="1.0" encoding="utf-8"?>
<!-- Generator: Adobe Illustrator 16.0.0, SVG Export Plug-In . SVG Version: 6.00 Build 0)  -->
<!DOCTYPE svg PUBLIC "-//W3C//DTD SVG 1.1//EN" "http://www.w3.org/Graphics/SVG/1.1/DTD/svg11.dtd">
<svg version="1.1" id="Layer_1" xmlns="http://www.w3.org/2000/svg" xmlns:xlink="http://www.w3.org/1999/xlink" x="0px" y="0px"
	 width="792px" height="187px" viewBox="0 0 792 187" enable-background="new 0 0 792 187" xml:space="preserve">
<g>
	<g>
		<path fill="#C6A05A" stroke="#231F20" stroke-width="1.1727" stroke-miterlimit="10" d="M118.815,103.641l-5.096-18.659H99.53
			l-5.174,18.659h-7.708l14.504-52.762l-3.293-12.073h20.858l17.875,64.835H118.815z M106.664,59.268l-5.88,21.167h11.681
			L106.664,59.268z M114.792,43.274h-2.9l15.444,55.897h2.822L114.792,43.274z"/>
		<path fill="#C6A05A" stroke="#231F20" stroke-width="1.1727" stroke-miterlimit="10" d="M211.874,103.641V55.975l-14.19,47.666
			H185.43l-12.676-42.178v42.178h-7.629V49.546l-4.077-10.74h20.54l15.523,40.375l12.073-40.375h19.835v64.835H211.874z
			 M178.531,43.274h-2.744l17.875,47.509l1.333-4.547L178.531,43.274z M224.471,43.274h-2.979v55.897h2.979V43.274z"/>
		<path fill="#C6A05A" stroke="#231F20" stroke-width="1.1727" stroke-miterlimit="10" d="M258.497,103.641V38.806h37.474v7.629
			h-17.247v22.937h16.773v7.708h-16.773v18.931h17.247v7.63H258.497z M274.255,43.274h-3.058v55.897h3.058V43.274z"/>
		<path fill="#C6A05A" stroke="#231F20" stroke-width="1.1727" stroke-miterlimit="10" d="M360.782,103.641l-9.408-19.051
			c-1.176,0.235,0.966,0.392-0.053,0.392h-5.723v18.659h-20.148V38.806h25.871c8.232,0,15.209,6.899,15.209,15.13v15.837
			c0,5.565-3.057,10.662-7.761,13.249l10.191,20.619H360.782z M341.129,43.274h-2.979v55.897h2.979V43.274z M358.9,53.936
			c0-5.801-1.7-10.662-7.58-10.662h-5.723v37.16h5.723c5.88,0,7.58-4.86,7.58-10.662V53.936z"/>
		<path fill="#C6A05A" stroke="#231F20" stroke-width="1.1727" stroke-miterlimit="10" d="M397.026,103.641V38.806h20.227v64.835
			H397.026z M412.785,43.274h-3.058v55.897h3.058V43.274z"/>
		<path fill="#C6A05A" stroke="#231F20" stroke-width="1.1727" stroke-miterlimit="10" d="M461.862,103.641
			c-8.311,0-15.132-6.821-15.132-15.209V53.936c0-8.31,6.978-15.13,15.132-15.13h22.343v7.629h-11.133
			c-3.371,0-6.115-0.339-6.115,3.032v43.511c0,3.371,2.744,3.032,6.115,3.032h11.133v7.63H461.862z M462.489,92.979V49.467
			c0-2.195,0.627-4.233,1.882-6.037c-2.901,0.627-4.939,3.137-4.939,6.037v43.511c0,3.058,2.038,5.488,4.939,6.037
			C463.116,97.212,462.489,95.173,462.489,92.979z"/>
		<path fill="#C6A05A" stroke="#231F20" stroke-width="1.1727" stroke-miterlimit="10" d="M545.851,103.641l-5.096-18.659h-14.189
			l-5.174,18.659h-7.708l14.503-52.762l-3.293-12.073h20.7l17.874,64.835H545.851z M533.699,59.268l-5.88,21.167h11.682
			L533.699,59.268z M541.828,43.274h-2.9l15.443,55.897h2.823L541.828,43.274z"/>
		<path fill="#C6A05A" stroke="#231F20" stroke-width="1.1727" stroke-miterlimit="10" d="M637.812,103.641h-12.568l-24.905-48.842
			v48.842h-7.63V46.959l-4.625-8.153h22.735l19.364,33.711V38.806h7.629V103.641z M630.184,81.611l-21.951-38.336h-3.371
			l25.322,43.667V81.611z"/>
		<path fill="#C6A05A" stroke="#231F20" stroke-width="1.1727" stroke-miterlimit="10" d="M691.099,103.641h-11.76
			c-8.31,0-15.131-6.821-15.131-15.209V53.936c0-8.31,6.978-15.13,15.131-15.13h11.76c8.231,0,15.131,6.899,15.131,15.13v34.495
			C706.229,96.663,699.409,103.641,691.099,103.641z M679.967,92.979V49.467c0-2.195,0.627-4.233,1.881-6.037
			c-2.822,0.549-4.939,3.137-4.939,6.037v43.511c0,2.901,2.117,5.488,4.939,6.037C680.594,97.212,679.967,95.173,679.967,92.979z
			 M698.6,53.936c0-6.115-2.014-10.662-8.049-10.662c-3.371,0-6.115,2.822-6.115,6.193v43.511c0,3.371,2.744,6.193,6.115,6.193
			c6.35,0,8.049-4.547,8.049-10.741V53.936z"/>
	</g>
	
		<line fill="none" stroke="#C6A05A" stroke-width="5.16" stroke-miterlimit="10" x1="79.451" y1="28.461" x2="712.104" y2="28.461"/>
	
		<line fill="none" stroke="#C6A05A" stroke-width="5.16" stroke-miterlimit="10" x1="79.451" y1="115.21" x2="712.104" y2="115.21"/>
	<g>
		<path fill="#C6A05A" stroke="#231F20" stroke-width="1.1727" stroke-miterlimit="10" d="M336.757,136.9h4.832
			c2.614,0,4.498,0.242,5.653,0.724s2.066,1.264,2.733,2.343c0.667,1.079,1,2.373,1,3.88c0,1.67-0.437,3.059-1.31,4.165
			c-0.874,1.106-2.059,1.876-3.555,2.31c-0.878,0.25-2.478,0.375-4.799,0.375v10.135h-4.555V136.9z M341.312,146.255h1.448
			c1.139,0,1.931-0.082,2.375-0.245s0.794-0.432,1.049-0.808s0.382-0.83,0.382-1.363c0-0.925-0.358-1.6-1.073-2.024
			c-0.521-0.315-1.486-0.474-2.896-0.474h-1.285V146.255z"/>
		<path fill="#C6A05A" stroke="#231F20" stroke-width="1.1727" stroke-miterlimit="10" d="M356.774,136.9h4.522v23.932h-4.522V136.9
			z"/>
		<path fill="#C6A05A" stroke="#231F20" stroke-width="1.1727" stroke-miterlimit="10" d="M368.104,136.9h13.064v4.458h-8.542v4.327
			h8.542v4.376h-8.542v6.296h8.542v4.474h-13.064V136.9z"/>
		<path fill="#C6A05A" stroke="#231F20" stroke-width="1.1727" stroke-miterlimit="10" d="M409.056,160.832V136.9h3.763
			c2.183,0,3.779,0.141,4.789,0.423c1.434,0.379,2.574,1.084,3.421,2.115c0.847,1.031,1.271,2.245,1.271,3.644
			c0,0.911-0.192,1.738-0.577,2.481c-0.386,0.743-1.012,1.44-1.88,2.091c1.454,0.683,2.517,1.538,3.189,2.562
			c0.672,1.025,1.008,2.237,1.008,3.636c0,1.345-0.348,2.571-1.042,3.677c-0.695,1.106-1.591,1.933-2.688,2.48
			c-1.096,0.548-2.611,0.822-4.544,0.822H409.056z M413.611,141.244v5.043h0.996c1.11,0,1.936-0.233,2.475-0.7
			c0.539-0.466,0.808-1.101,0.808-1.903c0-0.748-0.256-1.342-0.768-1.781c-0.512-0.439-1.29-0.659-2.335-0.659H413.611z
			 M413.611,150.355v6.133h1.142c1.893,0,3.168-0.238,3.825-0.716c0.658-0.477,0.987-1.171,0.987-2.083
			c0-1.03-0.386-1.844-1.158-2.44c-0.772-0.597-2.056-0.895-3.85-0.895H413.611z"/>
		<path fill="#C6A05A" stroke="#231F20" stroke-width="1.1727" stroke-miterlimit="10" d="M437.351,136.9h4.619l9.205,23.932h-4.734
			l-1.873-4.929h-9.765l-1.947,4.929h-4.734L437.351,136.9z M439.688,143.246l-3.211,8.215h6.403L439.688,143.246z"/>
		<path fill="#C6A05A" stroke="#231F20" stroke-width="1.1727" stroke-miterlimit="10" d="M456.672,136.9h4.826
			c2.644,0,4.525,0.236,5.647,0.708c1.12,0.472,2.022,1.255,2.705,2.351c0.683,1.096,1.024,2.392,1.024,3.888
			c0,1.573-0.378,2.888-1.131,3.946c-0.754,1.057-1.891,1.857-3.408,2.399l5.669,10.64h-4.979l-5.382-10.135h-0.417v10.135h-4.555
			V136.9z M461.227,146.255h1.428c1.448,0,2.446-0.19,2.992-0.571s0.818-1.012,0.818-1.894c0-0.522-0.135-0.977-0.404-1.363
			c-0.271-0.386-0.633-0.664-1.087-0.833c-0.454-0.168-1.287-0.253-2.498-0.253h-1.249V146.255z"/>
	</g>
	<circle fill="#C6A05A" stroke="#231F20" stroke-width="1.1727" stroke-miterlimit="10" cx="395.424" cy="147.106" r="2.963"/>
</g>
</svg>
